# xmcd
#
# Track frame offsets:
#	150
#	14254
#	29060
#	38872
#	48878
#	60361
#	73067
#	88586
#	104492
#	117372
#	131502
#	143877
#	158242
#	167972
#	175389
#	187265
#	195543
#	205529
#	216267
#	227978
#
# Disc length: 3172 seconds
#
# Revision: 2
# Processed by: cddbd v1.5.2PL0 Copyright (c) Steve Scherf et al.
# Submitted via: audiograbber 1.83.01
#
DISCID=280c6214
DTITLE=Various Artist - The Encyclopedia Of Country and Western Music  -  Cd2
DYEAR=2001
DGENRE=Country
TTITLE0=Pasty Montana - I Want To Be A Cowboy's Sweetheart
TTITLE1=Willie Nelson - And So Will You My Love
TTITLE2=Buck Owens - I Got A Tiger By The Tail
TTITLE3=Dolly Parton - Release Me
TTITLE4=Jonny Paycheck - Take This Job And Shove It
TTITLE5=Texas Playboys - Faded Love
TTITLE6=Tex Ritter - I Dreamed Of Hillibilly Heaven
TTITLE7=Jimmie Rodgers - Blue Yodel
TTITLE8=Kenny Rogers - Ruby Dont't Take Your Love To Town
TTITLE9=Ricky Skaggs - Another Song, Another Drink
TTITLE10=Billie Joe Spears - The Cheating Kind
TTITLE11=Justin Tub - 2 Out Of Three Ain't Bad
TTITLE12=Merle Travis - Divorce Me C.O.D.
TTITLE13=Conway Twitty - Treat Me Mean, Treat Me Cruel
TTITLE14=Doc Watson - Tom Dooley
TTITLE15=Kitty Wells - After Dark
TTITLE16=Boxcar Willie - King Of The Road
TTITLE17=Tex Williams - Battle Of New Orleans
TTITLE18=Bob Wills - New San Antonio Rose
TTITLE19=Faron Young - Hello Walls
EXTD=
EXTT0=
EXTT1=
EXTT2=
EXTT3=
EXTT4=
EXTT5=
EXTT6=
EXTT7=
EXTT8=
EXTT9=
EXTT10=
EXTT11=
EXTT12=
EXTT13=
EXTT14=
EXTT15=
EXTT16=
EXTT17=
EXTT18=
EXTT19=
PLAYORDER=
